<svg xmlns="http://www.w3.org/2000/svg" xmlns:xlink="http://www.w3.org/1999/xlink" version="1.1" x="0px" y="0px" viewBox="0 0 100 100" enable-background="new 0 0 100 100" xml:space="preserve"><g><g><g><g><path d="M67.612,91.584H31.847c-1.032,0-1.895-0.785-1.991-1.813l-6.18-65.667c-0.053-0.561,0.133-1.118,0.512-1.534      c0.379-0.417,0.916-0.654,1.479-0.654h48.499c0.565,0,1.104,0.239,1.482,0.658c0.38,0.419,0.563,0.979,0.508,1.541      l-6.554,65.667C69.5,90.805,68.64,91.584,67.612,91.584z M33.667,87.584h32.134l6.154-61.667H27.864L33.667,87.584z"></path></g><g><path d="M78.833,25.917H21.167c-1.104,0-2-0.896-2-2v-8c0-1.104,0.896-2,2-2h3.251v-3.5c0-1.104,0.896-2,2-2h47      c1.104,0,2,0.896,2,2v3.5h3.415c1.104,0,2,0.896,2,2v8C80.833,25.021,79.938,25.917,78.833,25.917z M23.167,21.917h53.666v-4      h-3.415c-1.104,0-2-0.896-2-2v-3.5h-43v3.5c0,1.104-0.896,2-2,2h-3.251V21.917z"></path></g></g><g><rect x="29.192" y="60.25" width="41.615" height="4"></rect></g><g><rect x="27.729" y="37.25" width="44.375" height="4"></rect></g></g><g><polygon points="73.584,63.457 26.084,63.457 23,36.958 76.308,36.958   "></polygon><path d="M73.584,65.457h-47.5c-1.015,0-1.869-0.761-1.987-1.769l-3.084-26.5c-0.066-0.567,0.114-1.135,0.493-1.562    s0.923-0.67,1.494-0.67h53.308c0.566,0,1.105,0.24,1.484,0.66c0.38,0.42,0.563,0.981,0.505,1.544l-2.724,26.499    C75.469,64.682,74.609,65.457,73.584,65.457z M27.865,61.457h43.915l2.313-22.5H25.246L27.865,61.457z"></path></g></g></svg>